<svg width="129" height="36" viewBox="0 0 129 36" fill="none" xmlns="http://www.w3.org/2000/svg">
<g clip-path="url(#clip0_55_6016)">
<path d="M37.3403 35.9365V24.9577H39.2552V35.9365H37.3403ZM47.1063 31.1492V29.5535H53.9999V35.9365H47.3616C46.5956 35.9365 45.8935 35.8088 45.2552 35.4897C44.6169 35.1705 44.0425 34.7875 43.5318 34.3407C43.085 33.8301 42.702 33.2556 42.3829 32.5535C42.1276 31.8514 41.9999 31.1492 41.9999 30.3194C41.9999 29.4897 42.1276 28.7875 42.3829 28.0854C42.6382 27.4471 43.0212 26.8726 43.5318 26.362C44.0425 25.9152 44.5531 25.5322 45.2552 25.2769C45.8935 25.0216 46.5956 24.8939 47.3616 24.8939H53.2978V26.8088H47.3616C46.851 26.8088 46.4042 26.8726 46.0212 27.0641C45.5744 27.2556 45.2552 27.5109 44.9361 27.7662C44.6169 28.0854 44.4254 28.4684 44.234 28.9152C44.0425 29.362 43.9786 29.8088 43.9786 30.3833C43.9786 30.8939 44.0425 31.4045 44.234 31.8514C44.4254 32.2982 44.6169 32.6811 44.9361 33.0003C45.2552 33.3194 45.5744 33.5748 46.0212 33.7662C46.468 33.9577 46.9148 34.0216 47.3616 34.0216H52.085V31.1492H47.1063ZM65.6808 36.0003V31.2131H60.1276V29.4897H65.6808V24.9577H67.5956V36.0003H65.6808ZM56.8722 24.9577H58.7871V36.0003H56.8722V24.9577ZM76.0212 26.8726V35.9365H74.1063V26.8726H69.9573V24.9577H80.2339V26.8726H76.0212ZM89.9361 26.8726V35.9365H88.0212V24.9577H97.3403V26.8726H89.9361ZM96.9573 31.4045H91.4042V29.745H96.9573V31.4045ZM109.787 35.9365L108.128 33.1918H102.894L103.787 31.6599H107.17L104.745 27.5748L99.7659 36.0003H97.5956L103.915 25.4684C104.042 25.2769 104.17 25.1492 104.298 25.0216C104.425 24.8939 104.617 24.8301 104.872 24.8301C105.064 24.8301 105.255 24.8939 105.383 25.0216C105.511 25.1492 105.638 25.2769 105.766 25.4684L112.085 36.0003H109.787V35.9365ZM128.106 35.9365H125.425L120.83 31.4684L116.234 35.9365H113.745L119.617 30.1918L114.128 24.8939H116.745L120.957 28.979L125.106 24.8939H127.596L122.106 30.1918L128.106 35.9365Z" fill="black"/>
<path fill-rule="evenodd" clip-rule="evenodd" d="M5.61694 0.254883H20.5531V14.9996" fill="#C40505"/>
<path fill-rule="evenodd" clip-rule="evenodd" d="M19.9148 35.9995H11.6169V28.8506" fill="#C40505"/>
<path fill-rule="evenodd" clip-rule="evenodd" d="M0 0L24.8936 24.4468V0H33.1915V35.7447H24.8936L8.29787 20.1064V35.7447H0V4.78723V0Z" fill="url(#paint0_linear_55_6016)"/>
<path fill-rule="evenodd" clip-rule="evenodd" d="M37.468 8.23404V0H63.6382L56.7446 8.23404H37.468Z" fill="#C40505"/>
<path fill-rule="evenodd" clip-rule="evenodd" d="M37.468 12.3828V20.6169H46.2127L53.0425 12.3828H37.468Z" fill="#C40505"/>
</g>
<defs>
<linearGradient id="paint0_linear_55_6016" x1="0" y1="17.8723" x2="33.1915" y2="17.8723" gradientUnits="userSpaceOnUse">
<stop stop-color="#276BE5"/>
<stop offset="1" stop-color="#59AEDB"/>
</linearGradient>
<clipPath id="clip0_55_6016">
<rect width="128.106" height="36" fill="white"/>
</clipPath>
</defs>
</svg>
