<?xml version="1.0" encoding="utf-8"?>
<!-- Generator: Adobe Illustrator 16.0.0, SVG Export Plug-In . SVG Version: 6.00 Build 0)  -->
<!DOCTYPE svg PUBLIC "-//W3C//DTD SVG 1.1//EN" "http://www.w3.org/Graphics/SVG/1.1/DTD/svg11.dtd">
<svg version="1.1" id="Layer_1" xmlns="http://www.w3.org/2000/svg" xmlns:xlink="http://www.w3.org/1999/xlink" x="0px" y="0px"
	 width="106.552px" height="50px" viewBox="0 0 106.552 50" enable-background="new 0 0 106.552 50" xml:space="preserve">
<path display="none" fill="#EAEAEA" d="M13.594,21.27c1.167-0.186,2.414-0.318,3.753-0.379c0.974-0.045,2.069-0.088,3.257-0.134
	C24.752,9.811,35.627,1.383,49.347-0.104c13.64-1.478,26.392,4.307,33.383,13.949c0.58,0.182,0.892,0.291,0.892,0.291
	s3.443,0.359,7.515,1.272c-1.869-3.666-4.379-6.989-7.394-9.869l1.241-2.192c0.581-1.032,0.268-2.288-0.752-3l-0.449-0.313
	l-5.312-3.711l-0.45-0.314c-1.02-0.713-2.462-0.684-3.445,0.068l-2.297,1.755C66.969-4.586,61.028-6,54.811-6.164l-1.087-2.943
	c-0.404-1.098-1.624-1.787-2.909-1.647l-0.568,0.06l-6.695,0.726l-0.566,0.061c-1.286,0.14-2.284,1.071-2.384,2.223l-0.296,3.444
	C34.744-2.57,29.764,0.11,25.594,3.532l-3.847-1.731c-1.156-0.521-2.565-0.24-3.365,0.67l-0.351,0.4l-4.161,4.736L13.52,8.009
	c-0.8,0.91-0.767,2.197,0.076,3.074l2.993,3.113C15.327,16.441,14.322,18.81,13.594,21.27"/>
<g>
	<g>
		<path fill="#E03836" d="M9.845,39.146V27.062h1.911l4.344,6.113c1.005,1.417,1.79,2.689,2.433,3.927l0.041-0.018
			c-0.161-1.614-0.201-3.084-0.201-4.967v-5.056h1.649v12.084h-1.77l-4.304-6.132c-0.945-1.345-1.851-2.726-2.534-4.034
			l-0.061,0.019c0.101,1.523,0.141,2.976,0.141,4.984v5.163H9.845z"/>
		<path fill="#E03836" d="M24.603,27.062v12.084h-1.75V27.062H24.603z"/>
		<path fill="#E03836" d="M37.753,38.607c-0.784,0.251-2.333,0.664-4.163,0.664c-2.051,0-3.74-0.467-5.068-1.596
			c-1.167-1.005-1.89-2.618-1.89-4.501c0.02-3.604,2.795-6.239,7.341-6.239c1.568,0,2.795,0.305,3.378,0.556l-0.422,1.273
			c-0.724-0.287-1.629-0.521-2.997-0.521c-3.298,0-5.45,1.829-5.45,4.859c0,3.065,2.071,4.877,5.229,4.877
			c1.146,0,1.931-0.144,2.333-0.323v-3.604h-2.756v-1.255h4.465V38.607z"/>
		<path fill="#E03836" d="M41.953,27.062v5.056h6.556v-5.056h1.771v12.084h-1.771v-5.666h-6.556v5.666h-1.75V27.062H41.953z"/>
		<path fill="#E03836" d="M55.664,28.388h-4.123v-1.326h10.036v1.326h-4.144v10.758h-1.77V28.388z"/>
	</g>
	<g>
		<path fill="#A09F9F" d="M10.198,42.766c0.3-0.042,0.657-0.073,1.047-0.073c0.708,0,1.211,0.151,1.545,0.438
			c0.34,0.286,0.538,0.691,0.538,1.259c0,0.572-0.192,1.041-0.549,1.363c-0.357,0.328-0.945,0.505-1.687,0.505
			c-0.351,0-0.646-0.016-0.895-0.042V42.766z M10.691,45.866c0.125,0.021,0.306,0.026,0.498,0.026c1.053,0,1.625-0.541,1.625-1.488
			c0.006-0.827-0.503-1.353-1.545-1.353c-0.254,0-0.447,0.021-0.577,0.047V45.866z"/>
		<path fill="#A09F9F" d="M16.614,44.581h-1.483v1.265h1.653v0.38h-2.146v-3.507h2.061v0.38h-1.568v1.108h1.483V44.581z"/>
		<path fill="#A09F9F" d="M18.711,45.122l-0.396,1.104h-0.509l1.296-3.507h0.594l1.302,3.507h-0.527l-0.407-1.104H18.711z
			 M19.962,44.769l-0.374-1.01c-0.085-0.229-0.142-0.437-0.198-0.64h-0.011c-0.057,0.208-0.119,0.422-0.192,0.635l-0.374,1.015
			H19.962z"/>
		<path fill="#A09F9F" d="M22.229,42.719h0.493v3.127h1.63v0.38h-2.123V42.719z"/>
		<path fill="#A09F9F" d="M27.548,44.581h-1.483v1.265h1.653v0.38h-2.146v-3.507h2.061v0.38h-1.568v1.108h1.483V44.581z"/>
		<path fill="#A09F9F" d="M29.028,42.766c0.249-0.047,0.606-0.073,0.945-0.073c0.526,0,0.866,0.089,1.104,0.286
			c0.192,0.156,0.3,0.396,0.3,0.666c0,0.463-0.317,0.771-0.719,0.896v0.016c0.294,0.094,0.47,0.343,0.56,0.707
			c0.125,0.489,0.216,0.827,0.295,0.963h-0.51c-0.062-0.099-0.147-0.4-0.254-0.838c-0.113-0.483-0.317-0.666-0.765-0.682h-0.464
			v1.52h-0.493V42.766z M29.521,44.363h0.504c0.526,0,0.86-0.266,0.86-0.666c0-0.453-0.357-0.65-0.877-0.656
			c-0.238,0-0.408,0.021-0.487,0.042V44.363z"/>
		<path fill="#A09F9F" d="M37.832,44.686c-0.028-0.489-0.063-1.077-0.057-1.515h-0.017c-0.13,0.411-0.289,0.849-0.481,1.332
			l-0.674,1.702H36.23l-0.617-1.671c-0.182-0.494-0.334-0.946-0.441-1.363H35.16c-0.012,0.438-0.04,1.025-0.073,1.551l-0.103,1.504
			h-0.47l0.267-3.507h0.628l0.651,1.696c0.158,0.432,0.288,0.816,0.385,1.181h0.017c0.097-0.354,0.232-0.738,0.402-1.181l0.68-1.696
			h0.628l0.237,3.507h-0.48L37.832,44.686z"/>
		<path fill="#A09F9F" d="M40.454,45.122l-0.396,1.104h-0.51l1.296-3.507h0.595l1.302,3.507h-0.526l-0.407-1.104H40.454z
			 M41.706,44.769l-0.374-1.01c-0.085-0.229-0.142-0.437-0.198-0.64h-0.012c-0.057,0.208-0.118,0.422-0.192,0.635l-0.373,1.015
			H41.706z"/>
		<path fill="#A09F9F" d="M43.973,46.226v-3.507h0.537l1.223,1.774c0.283,0.411,0.504,0.78,0.686,1.14l0.011-0.006
			c-0.045-0.468-0.057-0.895-0.057-1.441v-1.467h0.465v3.507h-0.498l-1.212-1.779c-0.266-0.391-0.521-0.791-0.713-1.171
			l-0.018,0.005c0.028,0.442,0.04,0.864,0.04,1.446v1.499H43.973z"/>
		<path fill="#A09F9F" d="M48.984,45.122l-0.396,1.104h-0.51l1.296-3.507h0.595l1.302,3.507h-0.526l-0.407-1.104H48.984z
			 M50.236,44.769l-0.374-1.01c-0.085-0.229-0.142-0.437-0.198-0.64h-0.012c-0.057,0.208-0.118,0.422-0.192,0.635l-0.373,1.015
			H50.236z"/>
		<path fill="#A09F9F" d="M55.406,46.069c-0.221,0.073-0.656,0.192-1.172,0.192c-0.577,0-1.053-0.135-1.426-0.463
			c-0.329-0.291-0.532-0.76-0.532-1.306c0.005-1.046,0.786-1.811,2.066-1.811c0.441,0,0.786,0.088,0.95,0.161l-0.118,0.369
			c-0.204-0.083-0.459-0.15-0.844-0.15c-0.929,0-1.534,0.53-1.534,1.409c0,0.891,0.583,1.416,1.472,1.416
			c0.323,0,0.544-0.042,0.657-0.094v-1.046h-0.776v-0.364h1.257V46.069z"/>
		<path fill="#A09F9F" d="M58.806,44.581h-1.483v1.265h1.653v0.38H56.83v-3.507h2.061v0.38h-1.568v1.108h1.483V44.581z"/>
		<path fill="#A09F9F" d="M63.501,44.686c-0.028-0.489-0.063-1.077-0.057-1.515h-0.017c-0.131,0.411-0.289,0.849-0.481,1.332
			l-0.674,1.702h-0.373l-0.617-1.671c-0.182-0.494-0.334-0.946-0.441-1.363h-0.012c-0.012,0.438-0.04,1.025-0.073,1.551
			l-0.103,1.504h-0.47l0.267-3.507h0.628l0.651,1.696c0.158,0.432,0.288,0.816,0.385,1.181h0.017
			c0.097-0.354,0.232-0.738,0.402-1.181l0.68-1.696h0.628l0.237,3.507h-0.48L63.501,44.686z"/>
		<path fill="#A09F9F" d="M67.483,44.581H66v1.265h1.653v0.38h-2.146v-3.507h2.061v0.38H66v1.108h1.483V44.581z"/>
		<path fill="#A09F9F" d="M68.964,46.226v-3.507h0.537l1.223,1.774c0.283,0.411,0.504,0.78,0.686,1.14l0.011-0.006
			c-0.045-0.468-0.057-0.895-0.057-1.441v-1.467h0.465v3.507H71.33l-1.212-1.779c-0.266-0.391-0.521-0.791-0.713-1.171l-0.018,0.005
			c0.028,0.442,0.04,0.864,0.04,1.446v1.499H68.964z"/>
		<path fill="#A09F9F" d="M74.083,43.104h-1.161v-0.385h2.825v0.385h-1.166v3.122h-0.498V43.104z"/>
		<path fill="#A09F9F" d="M78.647,45.674c0.221,0.125,0.544,0.229,0.883,0.229c0.504,0,0.799-0.245,0.799-0.599
			c0-0.328-0.204-0.516-0.72-0.697c-0.622-0.203-1.007-0.5-1.007-0.994c0-0.546,0.492-0.952,1.233-0.952
			c0.391,0,0.674,0.083,0.844,0.172l-0.136,0.369c-0.125-0.063-0.379-0.166-0.725-0.166c-0.521,0-0.719,0.286-0.719,0.525
			c0,0.328,0.231,0.489,0.759,0.677c0.645,0.229,0.974,0.515,0.974,1.03c0,0.541-0.437,1.009-1.336,1.009
			c-0.368,0-0.771-0.099-0.975-0.224L78.647,45.674z"/>
		<path fill="#A09F9F" d="M83.025,46.226v-1.488l-1.206-2.019h0.561l0.538,0.968c0.147,0.266,0.261,0.479,0.379,0.723h0.012
			c0.107-0.229,0.237-0.457,0.385-0.723l0.549-0.968h0.561l-1.279,2.014v1.493H83.025z"/>
		<path fill="#A09F9F" d="M85.841,45.674c0.221,0.125,0.544,0.229,0.883,0.229c0.504,0,0.799-0.245,0.799-0.599
			c0-0.328-0.204-0.516-0.72-0.697c-0.622-0.203-1.007-0.5-1.007-0.994c0-0.546,0.492-0.952,1.233-0.952
			c0.391,0,0.674,0.083,0.844,0.172l-0.136,0.369c-0.125-0.063-0.379-0.166-0.725-0.166c-0.521,0-0.719,0.286-0.719,0.525
			c0,0.328,0.231,0.489,0.759,0.677c0.645,0.229,0.974,0.515,0.974,1.03c0,0.541-0.437,1.009-1.336,1.009
			c-0.368,0-0.771-0.099-0.975-0.224L85.841,45.674z"/>
		<path fill="#A09F9F" d="M90.096,43.104h-1.161v-0.385h2.825v0.385h-1.166v3.122h-0.498V43.104z"/>
		<path fill="#A09F9F" d="M94.831,44.581h-1.483v1.265h1.653v0.38h-2.146v-3.507h2.061v0.38h-1.568v1.108h1.483V44.581z"/>
		<path fill="#A09F9F" d="M99.526,44.686c-0.028-0.489-0.063-1.077-0.057-1.515h-0.017c-0.131,0.411-0.289,0.849-0.481,1.332
			l-0.674,1.702h-0.373l-0.617-1.671c-0.182-0.494-0.334-0.946-0.441-1.363h-0.012c-0.012,0.438-0.04,1.025-0.073,1.551
			l-0.103,1.504h-0.47l0.267-3.507h0.628l0.651,1.696c0.158,0.432,0.288,0.816,0.385,1.181h0.017
			c0.097-0.354,0.232-0.738,0.402-1.181l0.68-1.696h0.628l0.237,3.507h-0.48L99.526,44.686z"/>
	</g>
	<g>
		<path fill="#A09F9F" d="M68.859,27.062h7.301v1.309h-5.551v4.017h5.128v1.29h-5.128v5.469h-1.75V27.062z"/>
		<path fill="#A09F9F" d="M80.843,35.345l-1.408,3.801h-1.81l4.605-12.084h2.111l4.626,12.084h-1.87l-1.448-3.801H80.843z
			 M85.287,34.125l-1.327-3.478c-0.302-0.789-0.503-1.507-0.704-2.206h-0.04c-0.201,0.718-0.423,1.453-0.684,2.188l-1.327,3.496
			H85.287z"/>
		<path fill="#A09F9F" d="M98.375,39.146l-1.729-2.672c-0.704-1.021-1.146-1.685-1.568-2.384h-0.04
			c-0.383,0.699-0.765,1.345-1.469,2.402l-1.629,2.653h-2.011l4.143-6.114l-3.981-5.97h2.031l1.789,2.833
			c0.503,0.788,0.886,1.398,1.247,2.044h0.061c0.382-0.718,0.724-1.273,1.227-2.044l1.851-2.833h2.011l-4.122,5.881l4.223,6.203
			H98.375z"/>
	</g>
	<path fill="#DE5B2C" d="M41.942,3.864l1.771,1.581c2.704-0.837,5.58-1.34,8.573-1.453v-2.03
		C48.651,2.088,45.173,2.753,41.942,3.864"/>
	<path fill="#E0792D" d="M29.523,14.696c3.012-3.58,7-6.465,11.617-8.338l-1.705-1.52c-5.146,2.234-9.527,5.653-12.7,9.858H29.523z"
		/>
	<path fill="#E03836" d="M75.026,12.021c1.404,0.277,2.695,0.565,3.856,0.842c-2.999-3.369-6.822-6.124-11.196-8.026l-1.716,1.528
		C69.376,7.745,72.443,9.668,75.026,12.021"/>
	<path fill="#D73E2F" d="M65.177,3.862c-3.229-1.112-6.709-1.773-10.345-1.898v2.033c2.989,0.111,5.866,0.615,8.566,1.451
		L65.177,3.862z"/>
	<path fill="#E6A92E" d="M27.806,16.966h-2.619c-0.845,1.38-1.573,2.828-2.161,4.333c0.78-0.03,1.602-0.058,2.455-0.087
		C26.117,19.728,26.897,18.31,27.806,16.966"/>
	<path fill="#A09F9F" d="M104.479,21.846c-0.475-0.449-1.042-0.869-1.674-1.261c0.271-0.912,0.589-2.012,0.859-2.962
		c0.301-1.055-0.681-2.048-1.892-1.917l-10.01,1.082c-3.521-0.722-6.305-1.012-6.305-1.012s-13.203-4.597-29.143-4.599
		c-13.776-0.001-25.324,8.205-28.912,11.045c-3.196,0.104-6.008,0.206-8.222,0.307C4.289,23.211,0.281,32.405,0.281,32.405
		c10.886-8.514,16.869-7.604,26.319-7.493c9.451,0.114,51.919-1.701,57.722-2.099c5.803-0.398,11.726,0.056,17.229,2.895
		c4.865,2.509,3.646,5.674,3.646,5.674S109.326,26.445,104.479,21.846 M54.419,21.363c-6.918,0.251-14.257,0.466-20.758,0.663
		c-0.924,0.028-1.328-1.029-0.578-1.51c4.813-3.097,13.281-7.43,23.184-7.594c0.565-0.01,1.127-0.012,1.687-0.005
		c0.513,0.005,0.853,0.474,0.646,0.892l-3.56,7.177C54.93,21.206,54.69,21.353,54.419,21.363 M82.139,18.769
		c-0.494,0.254-1.059,0.509-1.705,0.752c-1.917,0.723-11.076,1.259-22.011,1.69c-0.529,0.021-0.896-0.463-0.679-0.893
		c1.06-2.091,2.534-5.039,3.337-6.648c0.19-0.382,0.632-0.618,1.098-0.586c8.336,0.57,15.63,2.453,19.738,3.713
		C82.906,17.1,83.044,18.3,82.139,18.769"/>
</g>
<rect x="-172.814" y="-66.648" display="none" fill="none" width="305.463" height="272.462"/>
</svg>
